<?xml version="1.0" encoding="utf-8"?>
<!-- Generator: Adobe Illustrator 15.0.0, SVG Export Plug-In . SVG Version: 6.00 Build 0)  -->
<!DOCTYPE svg PUBLIC "-//W3C//DTD SVG 1.1//EN" "http://www.w3.org/Graphics/SVG/1.1/DTD/svg11.dtd">
<svg version="1.1" id="Layer_1" xmlns="http://www.w3.org/2000/svg" xmlns:xlink="http://www.w3.org/1999/xlink" x="0px" y="0px"
	 width="194.377px" height="20.753px" viewBox="0 0 194.377 20.753" enable-background="new 0 0 194.377 20.753"
	 xml:space="preserve">
<g>
	<path fill-rule="evenodd" clip-rule="evenodd" fill="#FFFFFF" d="M6.646,12.806c0,0.623-0.505,1.127-1.128,1.127
		c-0.624,0-1.129-0.504-1.129-1.127c0-0.625,0.505-1.129,1.129-1.129C6.142,11.677,6.646,12.181,6.646,12.806L6.646,12.806z"/>
	<path fill-rule="evenodd" clip-rule="evenodd" fill="#FFFFFF" d="M12.069,5.518c0,0.935-0.759,1.692-1.693,1.692
		S8.684,6.453,8.684,5.518s0.758-1.693,1.692-1.693S12.069,4.583,12.069,5.518L12.069,5.518z"/>
	<path fill-rule="evenodd" clip-rule="evenodd" fill="#FFFFFF" d="M16.927,7.947c0,0.935-0.757,1.693-1.692,1.693
		c-0.935,0-1.692-0.758-1.692-1.693c0-0.935,0.758-1.693,1.692-1.693C16.17,6.254,16.927,7.013,16.927,7.947L16.927,7.947z"/>
	<path fill-rule="evenodd" clip-rule="evenodd" fill="#FFFFFF" d="M21.786,10.376c0,0.936-0.758,1.692-1.693,1.692
		S18.4,11.312,18.4,10.376c0-0.934,0.757-1.692,1.692-1.692C21.028,8.684,21.786,9.442,21.786,10.376L21.786,10.376z"/>
	<path fill-rule="evenodd" clip-rule="evenodd" fill="#FFFFFF" d="M16.927,12.806c0,0.934-0.757,1.691-1.692,1.691
		c-0.935,0-1.692-0.758-1.692-1.691c0-0.936,0.758-1.693,1.692-1.693C16.17,11.113,16.927,11.871,16.927,12.806L16.927,12.806z"/>
	<path fill-rule="evenodd" clip-rule="evenodd" fill="#FFFFFF" d="M26.644,12.806c0,0.934-0.758,1.691-1.692,1.691
		c-0.936,0-1.693-0.758-1.693-1.691c0-0.936,0.758-1.693,1.693-1.693C25.886,11.113,26.644,11.871,26.644,12.806L26.644,12.806z"/>
	<path fill-rule="evenodd" clip-rule="evenodd" fill="#FFFFFF" d="M26.079,17.664c0,0.623-0.505,1.129-1.128,1.129
		s-1.129-0.506-1.129-1.129s0.506-1.129,1.129-1.129S26.079,17.041,26.079,17.664L26.079,17.664z"/>
	<path fill-rule="evenodd" clip-rule="evenodd" fill="#FFFFFF" d="M30.938,15.234c0,0.623-0.505,1.129-1.128,1.129
		s-1.129-0.506-1.129-1.129s0.506-1.129,1.129-1.129S30.938,14.611,30.938,15.234L30.938,15.234z"/>
	<path fill-rule="evenodd" clip-rule="evenodd" fill="#FFFFFF" d="M31.502,10.376c0,0.936-0.758,1.692-1.692,1.692
		s-1.693-0.756-1.693-1.692c0-0.934,0.759-1.692,1.693-1.692C30.744,8.684,31.502,9.442,31.502,10.376L31.502,10.376z"/>
	<path fill-rule="evenodd" clip-rule="evenodd" fill="#FFFFFF" d="M26.644,7.947c0,0.935-0.758,1.693-1.692,1.693
		c-0.936,0-1.693-0.758-1.693-1.693c0-0.935,0.758-1.693,1.693-1.693C25.886,6.254,26.644,7.013,26.644,7.947L26.644,7.947z"/>
	<path fill-rule="evenodd" clip-rule="evenodd" fill="#FFFFFF" d="M21.222,15.234c0,0.623-0.506,1.129-1.129,1.129
		s-1.129-0.506-1.129-1.129s0.506-1.129,1.129-1.129S21.222,14.611,21.222,15.234L21.222,15.234z"/>
	<path fill-rule="evenodd" clip-rule="evenodd" fill="#FFFFFF" d="M31.502,5.518c0,0.935-0.758,1.692-1.692,1.692
		s-1.693-0.757-1.693-1.692s0.759-1.693,1.693-1.693S31.502,4.583,31.502,5.518L31.502,5.518z"/>
	<path fill-rule="evenodd" clip-rule="evenodd" fill="#FFFFFF" d="M35.796,3.089c0,0.623-0.505,1.128-1.129,1.128
		c-0.622,0-1.128-0.505-1.128-1.128c0-0.623,0.505-1.129,1.128-1.129C35.291,1.96,35.796,2.466,35.796,3.089L35.796,3.089z"/>
	<path fill-rule="evenodd" clip-rule="evenodd" fill="#FFFFFF" d="M35.797,12.806c0,0.623-0.506,1.127-1.129,1.127
		s-1.129-0.504-1.129-1.127c0-0.625,0.505-1.129,1.129-1.129C35.291,11.677,35.797,12.181,35.797,12.806L35.797,12.806z"/>
	<path fill-rule="evenodd" clip-rule="evenodd" fill="#FFFFFF" d="M21.222,5.518c0,0.623-0.506,1.128-1.129,1.128
		s-1.129-0.505-1.129-1.128c0-0.624,0.506-1.128,1.129-1.128S21.222,4.895,21.222,5.518L21.222,5.518z"/>
	<path fill-rule="evenodd" clip-rule="evenodd" fill="#FFFFFF" d="M16.363,17.664c0,0.623-0.506,1.129-1.129,1.129
		s-1.128-0.506-1.128-1.129s0.505-1.129,1.128-1.129S16.363,17.041,16.363,17.664L16.363,17.664z"/>
	<path fill-rule="evenodd" clip-rule="evenodd" fill="#FFFFFF" d="M12.069,10.376c0,0.936-0.759,1.692-1.693,1.692
		s-1.692-0.756-1.692-1.692c0-0.934,0.758-1.692,1.692-1.692C11.311,8.684,12.069,9.442,12.069,10.376L12.069,10.376z"/>
	<path fill-rule="evenodd" clip-rule="evenodd" fill="#ED1847" d="M7.211,7.947c0,0.935-0.758,1.693-1.692,1.693
		c-0.936,0-1.693-0.758-1.693-1.693c0-0.935,0.758-1.693,1.693-1.693C6.453,6.254,7.211,7.013,7.211,7.947L7.211,7.947z"/>
	<path fill-rule="evenodd" clip-rule="evenodd" fill="#FFFFFF" d="M1.319,15.234c0,0.365-0.295,0.66-0.66,0.66
		C0.296,15.894,0,15.599,0,15.234c0-0.363,0.296-0.658,0.659-0.658C1.024,14.576,1.319,14.871,1.319,15.234L1.319,15.234z"/>
	<path fill-rule="evenodd" clip-rule="evenodd" fill="#FFFFFF" d="M1.319,10.376c0,0.366-0.295,0.661-0.66,0.661
		C0.296,11.037,0,10.742,0,10.376c0-0.364,0.296-0.659,0.659-0.659C1.024,9.717,1.319,10.012,1.319,10.376L1.319,10.376z"/>
	<path fill-rule="evenodd" clip-rule="evenodd" fill="#FFFFFF" d="M11.036,15.199c0,0.367-0.296,0.662-0.66,0.662
		c-0.363,0-0.659-0.295-0.659-0.662c0-0.361,0.296-0.658,0.659-0.658C10.74,14.541,11.036,14.837,11.036,15.199L11.036,15.199z"/>
	<path fill-rule="evenodd" clip-rule="evenodd" fill="#FFFFFF" d="M11.036,0.66c0,0.365-0.295,0.66-0.66,0.66
		c-0.364,0-0.659-0.295-0.659-0.66c0-0.364,0.295-0.66,0.659-0.66C10.741,0,11.036,0.296,11.036,0.66L11.036,0.66z"/>
	<path fill-rule="evenodd" clip-rule="evenodd" fill="#FFFFFF" d="M20.719,20.093c0,0.363-0.296,0.66-0.66,0.66
		s-0.659-0.297-0.659-0.66c0-0.365,0.295-0.66,0.659-0.66S20.719,19.728,20.719,20.093L20.719,20.093z"/>
	<path fill-rule="evenodd" clip-rule="evenodd" fill="#FFFFFF" d="M6.178,3.089c0,0.364-0.296,0.659-0.659,0.659
		c-0.365,0-0.66-0.295-0.66-0.659c0-0.365,0.295-0.66,0.66-0.66C5.882,2.429,6.178,2.724,6.178,3.089L6.178,3.089z"/>
	<path fill-rule="evenodd" clip-rule="evenodd" fill="#FFFFFF" d="M15.895,3.089c0,0.364-0.296,0.659-0.66,0.659
		s-0.659-0.295-0.659-0.659c0-0.365,0.295-0.66,0.659-0.66S15.895,2.724,15.895,3.089L15.895,3.089z"/>
	<path fill-rule="evenodd" clip-rule="evenodd" fill="#FFFFFF" d="M20.719,20.093c0,0.363-0.296,0.66-0.66,0.66
		s-0.659-0.297-0.659-0.66c0-0.365,0.295-0.66,0.659-0.66S20.719,19.728,20.719,20.093L20.719,20.093z"/>
	<path fill-rule="evenodd" clip-rule="evenodd" fill="#FFFFFF" d="M45.044,7.947c0,0.364-0.296,0.66-0.66,0.66
		s-0.659-0.295-0.659-0.66s0.295-0.66,0.659-0.66S45.044,7.583,45.044,7.947L45.044,7.947z"/>
	<path fill-rule="evenodd" clip-rule="evenodd" fill="#FFFFFF" d="M35.327,17.664c0,0.363-0.295,0.66-0.659,0.66
		s-0.659-0.297-0.659-0.66c0-0.365,0.295-0.658,0.659-0.658S35.327,17.298,35.327,17.664L35.327,17.664z"/>
	<path fill-rule="evenodd" clip-rule="evenodd" fill="#FFFFFF" d="M41.219,5.518c0,0.935-0.758,1.692-1.693,1.692
		c-0.935,0-1.691-0.757-1.691-1.692c0-0.935,0.757-1.693,1.691-1.693C40.461,3.825,41.219,4.583,41.219,5.518L41.219,5.518z"/>
	<path fill-rule="evenodd" clip-rule="evenodd" fill="#FFFFFF" d="M36.36,7.947c0,0.935-0.759,1.693-1.692,1.693
		c-0.936-0.002-1.693-0.758-1.693-1.693c0-0.935,0.758-1.693,1.693-1.693C35.602,6.254,36.36,7.013,36.36,7.947L36.36,7.947z"/>
	<path fill-rule="evenodd" clip-rule="evenodd" fill="#FFFFFF" d="M40.186,15.234c0,0.365-0.295,0.66-0.66,0.66
		c-0.364,0-0.659-0.295-0.659-0.66c0-0.363,0.295-0.658,0.659-0.658C39.891,14.576,40.186,14.871,40.186,15.234L40.186,15.234z"/>
	<path fill-rule="evenodd" clip-rule="evenodd" fill="#FFFFFF" d="M40.654,10.376c0,0.625-0.505,1.129-1.128,1.129
		s-1.129-0.504-1.129-1.129c0-0.622,0.506-1.128,1.129-1.128S40.654,9.754,40.654,10.376L40.654,10.376z"/>
	<path fill-rule="evenodd" clip-rule="evenodd" fill="#FFFFFF" d="M25.61,3.089c0,0.364-0.295,0.659-0.659,0.659
		c-0.365,0-0.66-0.295-0.66-0.659c0-0.365,0.295-0.66,0.66-0.66C25.315,2.429,25.61,2.724,25.61,3.089L25.61,3.089z"/>
	<path fill-rule="evenodd" clip-rule="evenodd" fill="#FFFFFF" d="M40.186,0.66c0,0.364-0.295,0.659-0.659,0.659
		c-0.365,0-0.66-0.295-0.66-0.659S39.161,0,39.526,0C39.891,0,40.186,0.296,40.186,0.66L40.186,0.66z"/>
	<path fill-rule="evenodd" clip-rule="evenodd" fill="#FFFFFF" d="M45.044,3.089c0,0.364-0.296,0.659-0.66,0.659
		s-0.659-0.295-0.659-0.659c0-0.365,0.295-0.66,0.659-0.66S45.044,2.724,45.044,3.089L45.044,3.089z"/>
	<path fill-rule="evenodd" clip-rule="evenodd" fill="#FFFFFF" d="M58.642,6.887c0.146-0.353,0.175-0.642,0.082-0.857
		c-0.07-0.165-0.21-0.289-0.416-0.369c-0.503-0.184-0.902,0.056-1.168,0.703l-1.877,4.552l-2.588-4.648
		c-0.153-0.288-0.337-0.482-0.547-0.579c-0.215-0.098-0.451-0.083-0.703,0.048c-0.233,0.131-0.361,0.333-0.38,0.599
		c-0.019,0.258,0.05,0.517,0.203,0.768l3.18,5.527c-0.141,0.363-0.291,0.639-0.446,0.814c-0.155,0.178-0.334,0.262-0.549,0.262
		c-0.096,0-0.186-0.008-0.27-0.025c-0.083-0.016-0.181-0.049-0.292-0.092c-0.117-0.049-0.199-0.076-0.243-0.086
		c-0.479-0.154-0.805-0.02-0.962,0.391c-0.174,0.469-0.004,0.848,0.506,1.125c0.336,0.188,0.788,0.281,1.344,0.281
		c0.618,0,1.133-0.234,1.53-0.697c0.392-0.455,0.807-1.197,1.236-2.203L58.642,6.887L58.642,6.887z"/>
	<path fill-rule="evenodd" clip-rule="evenodd" fill="#FFFFFF" d="M61.224,15.164c0.271,0,0.487-0.084,0.644-0.25
		s0.234-0.381,0.234-0.643l0.001-3.207h4.249v3.207c0,0.262,0.076,0.477,0.228,0.641c0.15,0.168,0.371,0.252,0.65,0.252
		c0.271,0,0.488-0.084,0.645-0.252c0.155-0.164,0.234-0.379,0.234-0.641V6.495c0-0.26-0.078-0.478-0.233-0.648
		c-0.157-0.171-0.374-0.258-0.646-0.258c-0.28,0-0.5,0.087-0.651,0.258c-0.15,0.17-0.227,0.388-0.227,0.648v2.988h-4.249V6.495
		c0-0.26-0.079-0.478-0.234-0.648c-0.157-0.171-0.374-0.258-0.645-0.258c-0.281,0-0.501,0.087-0.652,0.258
		c-0.151,0.17-0.227,0.388-0.227,0.648v7.776c0,0.26,0.075,0.477,0.227,0.641C60.724,15.08,60.942,15.164,61.224,15.164
		L61.224,15.164z"/>
	<path fill-rule="evenodd" clip-rule="evenodd" fill="#FFFFFF" d="M71.44,15.164c0.282,0,0.556-0.168,0.813-0.502l4.356-5.952v5.561
		c0,0.252,0.076,0.465,0.227,0.635c0.152,0.17,0.376,0.258,0.666,0.258c0.28,0,0.498-0.084,0.646-0.252
		c0.146-0.166,0.22-0.381,0.22-0.641V6.495c0-0.602-0.281-0.906-0.838-0.906c-0.319,0-0.602,0.165-0.841,0.489l-4.328,5.99V6.495
		c0-0.26-0.076-0.478-0.227-0.648c-0.152-0.171-0.372-0.258-0.652-0.258c-0.29,0-0.513,0.087-0.659,0.26
		c-0.146,0.169-0.221,0.387-0.221,0.646v7.776c0,0.279,0.075,0.498,0.222,0.654C70.971,15.083,71.178,15.164,71.44,15.164
		L71.44,15.164z"/>
	<path fill-rule="evenodd" clip-rule="evenodd" fill="#FFFFFF" d="M85.583,13.429c-0.332,0.223-0.836,0.334-1.498,0.334
		c-0.594,0-1.11-0.027-1.535-0.076v-2.748h1.521c1.347,0,2.001,0.457,2.001,1.398C86.072,12.845,85.907,13.212,85.583,13.429
		L85.583,13.429z M83.893,9.593H82.55V7.067c0.417-0.042,0.822-0.063,1.206-0.063c1.254,0,1.863,0.398,1.863,1.219
		C85.619,9.145,85.055,9.593,83.893,9.593L83.893,9.593z M86.262,10.037c0.335-0.179,0.608-0.436,0.813-0.77
		c0.229-0.373,0.345-0.78,0.345-1.208c0-1.685-1.182-2.539-3.512-2.539c-0.822,0-1.568,0.056-2.219,0.166
		C81.14,5.782,80.86,6.109,80.86,6.66v7.488c0,0.543,0.275,0.855,0.816,0.932c0.647,0.102,1.435,0.152,2.339,0.152
		c2.559,0,3.855-0.996,3.855-2.963c0-0.551-0.156-1.029-0.465-1.426C87.125,10.478,86.739,10.208,86.262,10.037L86.262,10.037z"/>
	<path fill-rule="evenodd" clip-rule="evenodd" fill="#FFFFFF" d="M96.227,14.949c0.152-0.143,0.23-0.334,0.23-0.568
		c0-0.242-0.078-0.439-0.23-0.582s-0.356-0.215-0.607-0.215h-3.908v-2.549h3.003c0.261,0,0.47-0.074,0.621-0.221
		c0.152-0.146,0.23-0.342,0.23-0.575c0-0.244-0.078-0.438-0.231-0.577c-0.151-0.137-0.36-0.206-0.62-0.206h-3.003V7.168h3.771
		c0.251,0,0.456-0.072,0.607-0.214c0.153-0.143,0.23-0.334,0.23-0.568c0-0.245-0.077-0.44-0.23-0.583
		c-0.151-0.142-0.356-0.214-0.607-0.214h-4.636c-0.279,0-0.501,0.086-0.658,0.258c-0.155,0.17-0.234,0.388-0.234,0.648v7.762
		c0,0.262,0.082,0.479,0.241,0.648c0.161,0.172,0.386,0.258,0.666,0.258h4.759C95.87,15.164,96.074,15.091,96.227,14.949
		L96.227,14.949z"/>
	<path fill-rule="evenodd" clip-rule="evenodd" fill="#FFFFFF" d="M99.953,7.147c0.382-0.05,0.765-0.075,1.138-0.075
		c1.264,0,1.877,0.515,1.877,1.576c0,1.134-0.646,1.685-1.974,1.685c-0.434,0-0.783-0.015-1.041-0.047V7.147L99.953,7.147z
		 M104.808,8.607c0-1.057-0.332-1.844-0.988-2.342c-0.651-0.495-1.556-0.746-2.688-0.746c-0.805,0-1.52,0.061-2.122,0.18
		c-0.541,0.105-0.814,0.447-0.814,1.015v7.556c0,0.26,0.077,0.477,0.228,0.641c0.152,0.168,0.371,0.252,0.651,0.252
		c0.271,0,0.488-0.084,0.645-0.25c0.155-0.166,0.234-0.381,0.234-0.643v-2.459c0.273,0.041,0.656,0.061,1.138,0.061
		c1.096-0.002,1.997-0.275,2.683-0.82C104.46,10.503,104.808,9.681,104.808,8.607L104.808,8.607z"/>
	<path fill-rule="evenodd" clip-rule="evenodd" fill="#FFFFFF" d="M112.541,13.14c-0.655,0.387-1.301,0.582-1.919,0.582
		c-0.773,0-1.423-0.301-1.925-0.893c-0.505-0.596-0.761-1.426-0.761-2.467c0-1.006,0.237-1.823,0.707-2.427
		c0.764-0.981,2.021-1.174,3.714-0.523c0.571,0.212,0.946,0.125,1.113-0.249c0.195-0.419,0.079-0.78-0.348-1.071
		c-0.609-0.425-1.475-0.641-2.569-0.641c-1.392,0-2.494,0.452-3.278,1.342c-0.783,0.889-1.18,2.094-1.18,3.582
		c0,1.506,0.374,2.715,1.11,3.594c0.739,0.883,1.847,1.33,3.294,1.33c1.14,0,2.092-0.275,2.831-0.818
		c0.238-0.182,0.386-0.393,0.439-0.623c0.053-0.236,0.016-0.439-0.112-0.605C113.414,12.9,113.036,12.859,112.541,13.14
		L112.541,13.14z"/>
	<path fill-rule="evenodd" clip-rule="evenodd" fill="#FFFFFF" d="M122.609,5.589c-0.319,0-0.603,0.165-0.841,0.489l-4.328,5.99
		V6.495c0-0.26-0.076-0.478-0.227-0.648c-0.153-0.171-0.372-0.258-0.652-0.258c-0.29,0-0.513,0.087-0.66,0.26
		c-0.146,0.169-0.22,0.387-0.22,0.646v7.776c0,0.279,0.074,0.498,0.222,0.654c0.147,0.158,0.355,0.238,0.617,0.238
		c0.282,0,0.555-0.168,0.813-0.502l4.354-5.952v5.561c0,0.252,0.076,0.465,0.228,0.635s0.375,0.258,0.666,0.258
		c0.279,0,0.497-0.084,0.646-0.252c0.146-0.166,0.219-0.381,0.219-0.641l0.001-7.776C123.447,5.894,123.164,5.589,122.609,5.589
		L122.609,5.589z"/>
	<path fill-rule="evenodd" clip-rule="evenodd" fill="#FFFFFF" d="M133.17,6.372c0-0.244-0.078-0.438-0.23-0.577
		c-0.152-0.137-0.361-0.206-0.621-0.206h-6.5c-0.251,0-0.455,0.069-0.606,0.206c-0.153,0.139-0.232,0.333-0.232,0.577
		c0,0.234,0.077,0.427,0.23,0.575c0.152,0.147,0.356,0.222,0.608,0.222h2.37v7.103c0,0.26,0.078,0.477,0.228,0.641
		c0.152,0.168,0.372,0.252,0.652,0.252s0.499-0.084,0.651-0.252c0.15-0.164,0.228-0.379,0.228-0.641V7.168h2.372
		c0.26,0,0.469-0.075,0.621-0.222C133.093,6.799,133.17,6.605,133.17,6.372L133.17,6.372z"/>
	<path fill-rule="evenodd" clip-rule="evenodd" fill="#FFFFFF" d="M140.369,13.583h-3.907v-2.549h3.002
		c0.262,0,0.471-0.074,0.622-0.221c0.152-0.146,0.229-0.342,0.229-0.575c0-0.244-0.077-0.438-0.231-0.577
		c-0.152-0.137-0.36-0.206-0.62-0.206h-3.002V7.168h3.771c0.252,0,0.456-0.072,0.607-0.214c0.152-0.143,0.229-0.334,0.229-0.568
		c0-0.245-0.077-0.44-0.229-0.583c-0.152-0.142-0.355-0.214-0.607-0.214h-4.637c-0.279,0-0.501,0.086-0.658,0.258
		c-0.154,0.17-0.233,0.388-0.233,0.648v7.762c0,0.262,0.081,0.479,0.241,0.648c0.161,0.172,0.385,0.258,0.664,0.258h4.76
		c0.251,0,0.455-0.072,0.607-0.215c0.153-0.143,0.23-0.334,0.23-0.568c0-0.242-0.077-0.439-0.23-0.582
		C140.824,13.656,140.62,13.583,140.369,13.583L140.369,13.583z"/>
	<path fill-rule="evenodd" clip-rule="evenodd" fill="#FFFFFF" d="M150.039,6.372c0-0.244-0.078-0.438-0.231-0.577
		c-0.151-0.137-0.36-0.206-0.62-0.206h-6.5c-0.251,0-0.455,0.069-0.607,0.206c-0.154,0.139-0.231,0.333-0.231,0.577
		c0,0.234,0.077,0.427,0.23,0.575c0.152,0.147,0.356,0.222,0.608,0.222h2.37v7.103c0,0.26,0.078,0.477,0.228,0.641
		c0.151,0.168,0.371,0.252,0.651,0.252c0.281,0,0.5-0.084,0.651-0.252c0.151-0.164,0.229-0.379,0.229-0.641V7.168h2.371
		c0.261,0,0.47-0.075,0.621-0.222C149.963,6.799,150.039,6.605,150.039,6.372L150.039,6.372z"/>
	<path fill-rule="evenodd" clip-rule="evenodd" fill="#FFFFFF" d="M163.177,14.271V6.495c0-0.602-0.282-0.906-0.837-0.906
		c-0.319,0-0.602,0.165-0.841,0.489l-4.329,5.99V6.495c0-0.26-0.075-0.478-0.226-0.648c-0.152-0.171-0.373-0.258-0.652-0.258
		c-0.29,0-0.513,0.087-0.661,0.26c-0.144,0.169-0.218,0.387-0.218,0.646v7.776c0,0.279,0.074,0.498,0.221,0.654
		c0.147,0.158,0.354,0.238,0.616,0.238c0.282,0,0.556-0.168,0.813-0.502l4.355-5.952v5.561c0,0.252,0.076,0.465,0.227,0.635
		c0.152,0.17,0.376,0.258,0.666,0.258c0.281,0,0.498-0.084,0.646-0.252C163.103,14.746,163.177,14.531,163.177,14.271
		L163.177,14.271z"/>
	<path fill-rule="evenodd" clip-rule="evenodd" fill="#FFFFFF" d="M172.049,5.589h-6.5c-0.251,0-0.455,0.069-0.607,0.206
		c-0.152,0.139-0.229,0.333-0.229,0.577c0,0.234,0.076,0.427,0.229,0.575c0.152,0.147,0.356,0.222,0.608,0.222h2.372v7.103
		c0,0.26,0.076,0.477,0.227,0.641c0.152,0.168,0.371,0.252,0.652,0.252c0.28,0,0.498-0.084,0.651-0.252
		c0.149-0.164,0.228-0.379,0.228-0.641V7.168h2.37c0.261,0,0.47-0.075,0.623-0.222c0.152-0.148,0.229-0.341,0.229-0.575
		c0-0.244-0.079-0.438-0.232-0.577C172.518,5.658,172.31,5.589,172.049,5.589L172.049,5.589z"/>
	<path fill-rule="evenodd" clip-rule="evenodd" fill="#FFFFFF" d="M182.349,5.589c-0.338,0-0.627,0.184-0.856,0.547l-2.695,4.354
		l-2.75-4.339c-0.229-0.373-0.531-0.562-0.897-0.562c-0.243,0-0.443,0.077-0.596,0.229c-0.151,0.152-0.229,0.385-0.229,0.692v7.762
		c0,0.592,0.278,0.893,0.825,0.893s0.823-0.301,0.823-0.893V8.95l1.927,3.019c0.211,0.338,0.484,0.508,0.815,0.508
		c0.32,0,0.591-0.176,0.802-0.521l1.899-3.068v5.384c0,0.262,0.078,0.477,0.234,0.641c0.156,0.168,0.373,0.252,0.644,0.252
		c0.281,0,0.5-0.084,0.651-0.252c0.151-0.164,0.228-0.379,0.228-0.641V6.495c0-0.269-0.071-0.488-0.212-0.653
		C182.817,5.674,182.612,5.589,182.349,5.589L182.349,5.589z"/>
	<path fill-rule="evenodd" clip-rule="evenodd" fill="#FFFFFF" d="M191.829,12.791c-0.466,0.617-1.146,0.932-2.02,0.932
		c-0.865,0-1.539-0.314-2.006-0.932c-0.47-0.623-0.709-1.436-0.709-2.415c0.001-0.979,0.239-1.791,0.709-2.414
		c0.467-0.617,1.141-0.931,2.006-0.931c0.873,0,1.552,0.313,2.02,0.931c0.469,0.622,0.708,1.435,0.708,2.414
		C192.537,11.357,192.298,12.167,191.829,12.791L191.829,12.791z M193.184,6.843c-0.793-0.923-1.928-1.391-3.374-1.391
		c-1.445,0-2.58,0.468-3.368,1.391c-0.786,0.92-1.187,2.109-1.187,3.533c0,1.434,0.4,2.625,1.187,3.54
		c0.79,0.92,1.923,1.385,3.368,1.385c1.446,0,2.581-0.465,3.374-1.385c0.793-0.914,1.193-2.105,1.193-3.54
		C194.377,8.952,193.977,7.763,193.184,6.843L193.184,6.843z"/>
</g>
</svg>
