<?xml version="1.0" encoding="utf-8"?>
<!-- Generator: Adobe Illustrator 15.0.0, SVG Export Plug-In . SVG Version: 6.00 Build 0)  -->
<!DOCTYPE svg PUBLIC "-//W3C//DTD SVG 1.1//EN" "http://www.w3.org/Graphics/SVG/1.1/DTD/svg11.dtd">
<svg version="1.1" id="Layer_1" xmlns="http://www.w3.org/2000/svg" xmlns:xlink="http://www.w3.org/1999/xlink" x="0px" y="0px"
	 width="174.68px" height="174.68px" viewBox="0 -63.025 174.68 174.68" enable-background="new 0 -63.025 174.68 174.68"
	 xml:space="preserve">
<circle fill="#EC0B43" cx="87.34" cy="24.315" r="87.34"/>
<g>
	<g>
		<path fill="#FFFFFF" d="M40.551-22.059c0.222,0,0.397-0.067,0.523-0.202c0.127-0.134,0.19-0.31,0.19-0.524v-6.746
			c0-0.214-0.063-0.391-0.19-0.529c-0.127-0.139-0.301-0.209-0.523-0.209c-0.23,0-0.406,0.07-0.53,0.209
			c-0.123,0.139-0.184,0.315-0.184,0.529v6.746c0,0.214,0.061,0.39,0.184,0.524C40.144-22.125,40.321-22.059,40.551-22.059z"/>
		<path fill="#FFFFFF" d="M50.229-29.173c0.124-0.12,0.185-0.274,0.185-0.464c0-0.198-0.061-0.354-0.185-0.464
			c-0.123-0.111-0.291-0.167-0.505-0.167h-5.64c-0.205,0-0.37,0.056-0.494,0.167c-0.123,0.111-0.185,0.266-0.185,0.464
			c0,0.19,0.062,0.345,0.185,0.464c0.124,0.119,0.288,0.178,0.494,0.178h2.106v6.211c0,0.214,0.062,0.389,0.185,0.524
			c0.123,0.135,0.3,0.202,0.529,0.202c0.23,0,0.407-0.067,0.53-0.202c0.123-0.135,0.184-0.31,0.184-0.524v-6.211h2.106
			C49.938-28.995,50.106-29.055,50.229-29.173z"/>
		<path fill="#FFFFFF" d="M58.897-22.26c0.127,0.135,0.301,0.202,0.523,0.202c0.23,0,0.407-0.067,0.529-0.202
			c0.123-0.134,0.185-0.31,0.185-0.524v-6.746c0-0.222-0.058-0.401-0.173-0.536s-0.28-0.203-0.494-0.203
			c-0.278,0-0.512,0.151-0.703,0.453l-2.379,3.843l-2.427-3.831c-0.191-0.309-0.437-0.465-0.738-0.465
			c-0.198,0-0.359,0.062-0.482,0.185c-0.123,0.123-0.184,0.312-0.184,0.565v6.734c0,0.484,0.222,0.726,0.666,0.726
			c0.444,0,0.667-0.242,0.667-0.726v-4.784l1.761,2.761c0.174,0.278,0.396,0.416,0.666,0.416c0.262,0,0.48-0.142,0.654-0.428
			l1.738-2.808v4.842C58.707-22.57,58.77-22.395,58.897-22.26z"/>
		<path fill="#FFFFFF" d="M66.655-30.387c-1.245,0-2.208,0.396-2.885,1.19c-0.679,0.793-1.018,1.805-1.018,3.034
			c0,1.237,0.339,2.251,1.018,3.04c0.678,0.79,1.64,1.185,2.885,1.185s2.209-0.395,2.891-1.185c0.683-0.789,1.024-1.802,1.024-3.04
			c0-1.229-0.341-2.241-1.024-3.034C68.864-29.991,67.9-30.387,66.655-30.387z M68.445-24.039c-0.417,0.551-1.013,0.827-1.791,0.827
			c-0.77,0-1.363-0.276-1.779-0.827c-0.417-0.552-0.625-1.259-0.625-2.124c0-0.864,0.208-1.573,0.625-2.125
			c0.416-0.551,1.009-0.827,1.779-0.827c0.778,0,1.374,0.276,1.791,0.827c0.417,0.552,0.625,1.26,0.625,2.125
			C69.069-25.298,68.862-24.591,68.445-24.039z"/>
		<path fill="#FFFFFF" d="M49.507-27.015c0-0.108-0.012-0.19-0.037-0.248c-0.019-0.059-0.062-0.14-0.129-0.244
			c-0.015-0.021-0.056-0.069-0.125-0.14c-0.035-0.035-0.068-0.068-0.099-0.102c-0.032-0.034-0.065-0.063-0.097-0.09
			c-0.064-0.056-0.108-0.084-0.133-0.084c-0.04,0-0.104,0.02-0.193,0.059c-0.093,0.037-0.145,0.07-0.154,0.1
			c-0.005,0.024-0.008,0.06-0.008,0.107c0,0.015,0,0.034,0.002,0.058c0,0.023,0.003,0.047,0.006,0.072
			c0.003,0.024,0.004,0.049,0.006,0.074c0.001,0.024,0.001,0.044,0.001,0.06c0,0.02,0.044,0.067,0.133,0.144
			c0.086,0.074,0.16,0.15,0.222,0.229c0.062,0.069,0.092,0.146,0.092,0.232c0,0.087-0.007,0.165-0.018,0.237
			c-0.013,0.072-0.032,0.139-0.06,0.202c-0.027,0.062-0.063,0.123-0.107,0.181c-0.044,0.058-0.099,0.116-0.166,0.175
			c-0.019,0.015-0.038,0.035-0.055,0.061c-0.017,0.026-0.034,0.054-0.048,0.083c-0.015,0.03-0.026,0.06-0.036,0.09
			c-0.009,0.032-0.012,0.059-0.012,0.084c0,0.069,0.027,0.125,0.081,0.169c0.054,0.045,0.118,0.066,0.192,0.066
			c0.138,0,0.262-0.098,0.369-0.295c0.111-0.194,0.2-0.42,0.266-0.679C49.469-26.678,49.505-26.877,49.507-27.015z"/>
		<path fill="#FFFFFF" d="M50.122-25.29c-0.07,0.081-0.135,0.163-0.194,0.247c-0.037,0.052-0.072,0.109-0.105,0.172
			c-0.034,0.063-0.063,0.127-0.089,0.194c-0.025,0.066-0.046,0.134-0.062,0.203c-0.017,0.069-0.024,0.134-0.024,0.196
			c0,0.124,0.031,0.235,0.092,0.336c0.062,0.101,0.139,0.196,0.232,0.287c0.094,0.089,0.195,0.174,0.303,0.254
			c0.108,0.081,0.209,0.161,0.303,0.241s0.171,0.162,0.232,0.245c0.062,0.083,0.093,0.174,0.093,0.27
			c0,0.076-0.021,0.163-0.062,0.26c-0.04,0.097-0.109,0.186-0.208,0.264c-0.034,0.027-0.071,0.051-0.11,0.072
			s-0.078,0.039-0.115,0.052c-0.037,0.013-0.071,0.024-0.104,0.031c-0.032,0.008-0.056,0.011-0.074,0.011
			c-0.015,0-0.034,0-0.057,0.002c-0.023,0.001-0.047,0.002-0.071,0.004c-0.022,0-0.045,0.003-0.064,0.007
			c-0.02,0.003-0.034,0.007-0.041,0.009c-0.064,0.035-0.113,0.076-0.148,0.124c-0.034,0.048-0.052,0.118-0.052,0.209
			c0,0.098,0.02,0.174,0.06,0.229c0.039,0.054,0.12,0.081,0.243,0.081c0.09,0,0.186-0.018,0.292-0.054
			c0.106-0.036,0.21-0.086,0.316-0.151c0.104-0.065,0.205-0.143,0.303-0.233c0.097-0.089,0.184-0.188,0.259-0.293
			c0.075-0.106,0.135-0.219,0.179-0.338c0.045-0.119,0.066-0.242,0.066-0.367c0-0.084-0.015-0.164-0.044-0.24
			c-0.03-0.077-0.069-0.149-0.118-0.22c-0.049-0.071-0.105-0.138-0.168-0.203c-0.063-0.065-0.128-0.13-0.197-0.194
			c-0.074-0.066-0.148-0.13-0.224-0.192c-0.075-0.062-0.149-0.124-0.222-0.188c-0.073-0.064-0.143-0.13-0.208-0.2
			c-0.066-0.069-0.128-0.145-0.185-0.229c0.077-0.083,0.159-0.166,0.249-0.245c0.088-0.081,0.191-0.178,0.31-0.291
			c0.076-0.076,0.142-0.16,0.197-0.251c0.056-0.091,0.083-0.171,0.083-0.24c0-0.197-0.083-0.295-0.251-0.295
			c-0.059,0-0.124,0.019-0.192,0.057c-0.069,0.038-0.139,0.089-0.21,0.151C50.263-25.443,50.193-25.371,50.122-25.29z"/>
		<path fill="#FFFFFF" d="M71.717-24.331c0.005,0.048,0.011,0.092,0.018,0.133c0.008,0.041,0.014,0.086,0.019,0.139
			c0.006,0.052,0.009,0.114,0.014,0.188c0.003,0.074,0.005,0.167,0.005,0.281c0,0.046-0.001,0.106-0.003,0.179
			c-0.002,0.073-0.006,0.152-0.009,0.238s-0.008,0.175-0.013,0.268c-0.005,0.093-0.009,0.182-0.013,0.268
			c-0.004,0.086-0.007,0.166-0.009,0.238s-0.003,0.132-0.003,0.179c0,0.044,0.001,0.104,0.005,0.182
			c0.003,0.076,0.014,0.151,0.031,0.227c0.017,0.075,0.043,0.141,0.08,0.195c0.036,0.056,0.085,0.083,0.149,0.083
			c0.045,0,0.081-0.004,0.108-0.013c0.029-0.009,0.055-0.021,0.077-0.036c0.022-0.015,0.043-0.033,0.063-0.055
			c0.02-0.022,0.044-0.048,0.071-0.077c0.037-0.225,0.081-0.436,0.133-0.634c0.052-0.198,0.114-0.385,0.188-0.563
			c0.074-0.177,0.162-0.346,0.264-0.504c0.102-0.159,0.224-0.311,0.367-0.457c0.182-0.184,0.358-0.323,0.526-0.415
			c0.169-0.092,0.333-0.163,0.494-0.212c0.066-0.022,0.133-0.042,0.201-0.061c0.067-0.019,0.128-0.039,0.183-0.061
			c0.054-0.023,0.098-0.046,0.131-0.072c0.033-0.026,0.05-0.058,0.05-0.094c0-0.056-0.017-0.104-0.05-0.142
			c-0.033-0.038-0.075-0.07-0.124-0.094c-0.049-0.025-0.102-0.042-0.159-0.052c-0.057-0.01-0.108-0.015-0.151-0.015
			c-0.227,0-0.44,0.054-0.639,0.161s-0.384,0.245-0.555,0.413c-0.172,0.169-0.328,0.357-0.466,0.564
			c-0.14,0.207-0.262,0.411-0.367,0.613c-0.002-0.084,0.001-0.188,0.01-0.313c0.011-0.124,0.021-0.253,0.036-0.388
			c0.014-0.133,0.027-0.266,0.039-0.395c0.013-0.129,0.019-0.241,0.019-0.334c0-0.047-0.008-0.092-0.026-0.138
			c-0.017-0.046-0.042-0.086-0.074-0.12c-0.032-0.035-0.07-0.063-0.115-0.085c-0.044-0.021-0.092-0.033-0.144-0.033
			c-0.044,0-0.089,0.01-0.135,0.032c-0.045,0.021-0.086,0.049-0.122,0.084c-0.036,0.036-0.065,0.078-0.088,0.125
			c-0.021,0.048-0.033,0.098-0.033,0.15c0,0.104,0.002,0.188,0.006,0.253C71.71-24.437,71.712-24.379,71.717-24.331z"/>
		<path fill="#FFFFFF" d="M78.589-23.968c-0.047,0-0.11,0.043-0.189,0.129c-0.14,0.158-0.291,0.305-0.452,0.44
			c-0.161,0.135-0.328,0.252-0.499,0.351c-0.171,0.099-0.347,0.175-0.525,0.23c-0.179,0.056-0.354,0.084-0.526,0.084
			c-0.136,0-0.247-0.023-0.334-0.067c-0.087-0.044-0.157-0.1-0.209-0.167c-0.051-0.068-0.087-0.143-0.106-0.224
			c-0.019-0.081-0.029-0.159-0.029-0.232c0-0.035,0.017-0.063,0.051-0.086c0.035-0.024,0.069-0.045,0.104-0.064
			c0.254-0.155,0.484-0.311,0.69-0.468c0.208-0.156,0.385-0.313,0.532-0.469c0.148-0.156,0.262-0.312,0.343-0.465
			c0.081-0.154,0.122-0.306,0.122-0.457c0-0.072-0.014-0.144-0.042-0.218c-0.029-0.074-0.069-0.141-0.124-0.199
			c-0.055-0.06-0.12-0.108-0.199-0.146c-0.08-0.039-0.168-0.058-0.267-0.058c-0.137,0-0.265,0.02-0.382,0.06
			c-0.118,0.04-0.225,0.09-0.323,0.152c-0.098,0.063-0.188,0.134-0.27,0.212c-0.082,0.08-0.155,0.157-0.222,0.233
			c-0.106,0.125-0.199,0.261-0.279,0.407s-0.147,0.295-0.199,0.451c-0.053,0.155-0.093,0.312-0.121,0.471
			c-0.026,0.159-0.041,0.314-0.041,0.467c0,0.48,0.105,0.845,0.318,1.093c0.211,0.249,0.51,0.373,0.897,0.373
			c0.165,0,0.336-0.026,0.514-0.078c0.177-0.051,0.352-0.122,0.524-0.212c0.172-0.09,0.34-0.196,0.503-0.318
			c0.162-0.122,0.311-0.254,0.446-0.397c0.119-0.125,0.21-0.238,0.275-0.34c0.063-0.101,0.096-0.194,0.096-0.28
			c0-0.074-0.007-0.127-0.018-0.159C78.635-23.952,78.615-23.968,78.589-23.968z M75.839-24.584c0.074-0.19,0.16-0.354,0.259-0.492
			c0.099-0.138,0.204-0.245,0.317-0.324c0.114-0.077,0.224-0.116,0.333-0.116c0.018,0,0.037,0.004,0.061,0.013
			c0.023,0.009,0.046,0.02,0.067,0.035c0.021,0.015,0.039,0.034,0.053,0.056c0.014,0.021,0.022,0.047,0.022,0.074
			c0,0.066-0.009,0.13-0.027,0.189c-0.016,0.061-0.046,0.123-0.089,0.185c-0.043,0.063-0.102,0.132-0.175,0.207
			c-0.075,0.075-0.168,0.161-0.281,0.257c-0.053,0.044-0.11,0.092-0.175,0.144c-0.065,0.052-0.131,0.104-0.196,0.153
			c-0.065,0.051-0.126,0.097-0.183,0.139c-0.057,0.042-0.103,0.074-0.138,0.096C75.715-24.189,75.765-24.395,75.839-24.584z"/>
		<path fill="#FFFFFF" d="M100.085-22.223c0.17-0.06,0.313-0.135,0.428-0.225c0.113-0.09,0.201-0.187,0.258-0.291
			c0.061-0.104,0.09-0.198,0.09-0.285l-0.037-0.151c-0.012,0-0.027,0.006-0.047,0.018s-0.041,0.024-0.059,0.038
			c-0.027,0.017-0.051,0.035-0.074,0.055c-0.102,0.074-0.191,0.136-0.271,0.185c-0.082,0.05-0.158,0.09-0.238,0.122
			c-0.076,0.033-0.158,0.055-0.242,0.069c-0.086,0.013-0.184,0.02-0.295,0.02c-0.172,0-0.316-0.036-0.436-0.107
			c-0.117-0.072-0.213-0.171-0.283-0.301c-0.072-0.129-0.123-0.283-0.156-0.461s-0.047-0.375-0.047-0.589
			c0-0.02,0.002-0.056,0.008-0.107s0.014-0.107,0.02-0.165c0.01-0.058,0.014-0.112,0.023-0.162c0.008-0.051,0.012-0.086,0.012-0.105
			s0-0.04,0-0.061c0.002-0.021,0.002-0.041,0.002-0.061c0-0.049-0.01-0.091-0.027-0.125c-0.021-0.035-0.066-0.052-0.137-0.052
			c-0.105,0-0.203,0.017-0.293,0.049c-0.092,0.034-0.178,0.08-0.258,0.139c-0.082,0.059-0.16,0.129-0.236,0.211
			c-0.076,0.081-0.152,0.17-0.227,0.269c-0.057,0.074-0.133,0.166-0.23,0.275s-0.199,0.223-0.305,0.34s-0.209,0.23-0.307,0.34
			c-0.1,0.109-0.174,0.201-0.229,0.275c0.012-0.101,0.02-0.187,0.023-0.258c0.004-0.072,0.01-0.149,0.018-0.231
			c0.01-0.083,0.023-0.181,0.041-0.295c0.02-0.115,0.049-0.267,0.092-0.456c0.018-0.091,0.037-0.182,0.057-0.273
			c0.018-0.092,0.033-0.173,0.047-0.248c0.016-0.074,0.025-0.135,0.033-0.183s0.01-0.076,0.01-0.076
			c0-0.035,0.004-0.066,0.008-0.102c0.006-0.036,0.008-0.072,0.008-0.109c0-0.033-0.004-0.063-0.01-0.094
			c-0.006-0.031-0.02-0.058-0.037-0.083c-0.021-0.024-0.049-0.044-0.082-0.059c-0.033-0.015-0.078-0.023-0.133-0.023
			c-0.074,0-0.137,0.017-0.191,0.048c-0.053,0.031-0.096,0.074-0.131,0.128c-0.037,0.052-0.063,0.113-0.08,0.183
			c-0.02,0.069-0.027,0.14-0.027,0.214c0,0.019-0.002,0.036-0.002,0.055c-0.221,0.221-0.438,0.442-0.648,0.666
			c-0.217,0.229-0.445,0.44-0.688,0.631c-0.107,0.086-0.203,0.153-0.287,0.202c-0.084,0.048-0.168,0.072-0.252,0.072
			c-0.068,0-0.129-0.035-0.182-0.104c-0.051-0.069-0.094-0.154-0.125-0.256c-0.035-0.103-0.059-0.21-0.074-0.324
			c-0.016-0.113-0.025-0.214-0.025-0.302c0-0.135,0.01-0.256,0.031-0.36s0.045-0.198,0.07-0.281
			c0.023-0.083,0.045-0.155,0.066-0.217c0.021-0.063,0.031-0.121,0.031-0.172c0-0.024-0.014-0.05-0.039-0.077
			c-0.025-0.027-0.057-0.055-0.09-0.083c-0.035-0.029-0.068-0.056-0.1-0.083c-0.031-0.027-0.053-0.052-0.063-0.074
			c-0.018-0.035-0.033-0.068-0.053-0.102c-0.016-0.033-0.035-0.063-0.059-0.091c-0.023-0.026-0.049-0.049-0.08-0.066
			s-0.066-0.026-0.109-0.026c-0.223,0-0.441,0.044-0.654,0.132c-0.213,0.087-0.418,0.223-0.613,0.408
			c-0.166,0.16-0.326,0.352-0.482,0.575c-0.145,0.207-0.271,0.423-0.385,0.646c-0.016,0.015-0.029,0.026-0.047,0.042
			c-0.121,0.113-0.227,0.213-0.318,0.299s-0.182,0.165-0.275,0.236c-0.092,0.072-0.191,0.14-0.299,0.207
			c-0.107,0.066-0.234,0.136-0.381,0.207c-0.278,0.136-0.569,0.203-0.872,0.203c-0.066,0-0.121-0.034-0.164-0.103
			c-0.045-0.069-0.08-0.157-0.105-0.266c-0.027-0.108-0.051-0.229-0.066-0.362c-0.018-0.133-0.033-0.262-0.049-0.388
			c-0.018-0.147-0.035-0.288-0.059-0.421c-0.023-0.133-0.059-0.266-0.107-0.399c-0.012-0.035-0.029-0.064-0.055-0.091
			c-0.027-0.025-0.051-0.048-0.082-0.066c-0.027-0.019-0.055-0.033-0.082-0.042c-0.029-0.01-0.053-0.015-0.07-0.015
			c-0.092,0-0.191,0.022-0.295,0.067c-0.104,0.044-0.206,0.101-0.308,0.169c-0.102,0.069-0.2,0.145-0.294,0.229
			s-0.179,0.164-0.254,0.241c-0.061,0.062-0.121,0.128-0.183,0.199c-0.063,0.071-0.126,0.143-0.187,0.215
			c-0.06,0.071-0.117,0.142-0.173,0.212c-0.055,0.07-0.106,0.135-0.153,0.194s-0.095,0.123-0.143,0.194
			c-0.048,0.069-0.094,0.136-0.138,0.201c-0.045,0.063-0.084,0.123-0.118,0.177c-0.034,0.054-0.063,0.095-0.085,0.123H85.95
			c-0.014,0-0.027-0.01-0.044-0.03s-0.024-0.037-0.024-0.051c0-0.098,0.012-0.217,0.033-0.357c0.022-0.139,0.042-0.3,0.06-0.482
			c0.01-0.12,0.02-0.233,0.03-0.338c0.009-0.105,0.02-0.208,0.03-0.31c0.012-0.103,0.022-0.206,0.034-0.308
			c0.01-0.104,0.02-0.214,0.026-0.333c0.009-0.104,0.017-0.221,0.026-0.353s0.021-0.265,0.035-0.4
			c0.014-0.136,0.028-0.269,0.042-0.399c0.017-0.131,0.032-0.247,0.054-0.347c0.004-0.027,0.013-0.067,0.027-0.12
			c0.012-0.053,0.025-0.108,0.042-0.166c0.014-0.058,0.027-0.115,0.038-0.168c0.011-0.054,0.017-0.098,0.017-0.129
			c0-0.101-0.029-0.18-0.086-0.237c-0.059-0.057-0.123-0.084-0.194-0.084c-0.034,0-0.068,0.008-0.102,0.024
			c-0.033,0.016-0.063,0.035-0.094,0.056c-0.027,0.022-0.051,0.047-0.074,0.074c-0.022,0.027-0.038,0.052-0.048,0.074
			c-0.032,0.069-0.059,0.133-0.08,0.19c-0.021,0.058-0.037,0.116-0.048,0.173c-0.011,0.059-0.02,0.117-0.025,0.175
			c-0.006,0.06-0.012,0.124-0.013,0.192c-0.002,0.062-0.006,0.138-0.01,0.228c-0.003,0.09-0.008,0.186-0.013,0.288
			c-0.001,0.006-0.001,0.014-0.001,0.02l0,0c-0.06,0.032-0.124,0.067-0.2,0.107c-0.075,0.04-0.157,0.08-0.246,0.122
			c-0.091,0.042-0.198,0.08-0.321,0.114c-0.123,0.035-0.251,0.066-0.385,0.094c-0.132,0.029-0.264,0.054-0.394,0.076
			c-0.132,0.022-0.25,0.041-0.357,0.056c-0.106,0.015-0.194,0.026-0.264,0.033c-0.068,0.008-0.108,0.012-0.118,0.012
			c-0.035-0.002-0.06-0.014-0.075-0.034c-0.014-0.02-0.021-0.058-0.021-0.115c0-0.032,0.002-0.068,0.009-0.108
			c0.006-0.041,0.016-0.094,0.03-0.161c0.013-0.066,0.032-0.149,0.055-0.248c0.023-0.099,0.052-0.223,0.086-0.373
			c0.005-0.02,0.013-0.055,0.023-0.105c0.009-0.051,0.02-0.108,0.031-0.172c0.011-0.063,0.023-0.132,0.037-0.204
			c0.013-0.071,0.024-0.138,0.035-0.199c0.008-0.062,0.018-0.114,0.024-0.157c0.007-0.043,0.008-0.071,0.008-0.083
			c0-0.018-0.008-0.043-0.022-0.078c-0.015-0.034-0.035-0.068-0.062-0.102c-0.025-0.033-0.055-0.062-0.09-0.086
			c-0.035-0.025-0.071-0.037-0.108-0.037c-0.016,0-0.043,0.012-0.077,0.034c-0.035,0.022-0.068,0.05-0.104,0.083
			c-0.035,0.034-0.065,0.07-0.091,0.109s-0.039,0.075-0.039,0.107c-0.003,0.035-0.009,0.087-0.017,0.157
			c-0.009,0.071-0.021,0.151-0.035,0.241c-0.015,0.089-0.031,0.185-0.049,0.285c-0.017,0.1-0.035,0.196-0.051,0.29
			c-0.018,0.094-0.034,0.179-0.048,0.255c-0.016,0.077-0.028,0.135-0.037,0.178c-0.045,0.187-0.095,0.326-0.151,0.417
			c-0.058,0.09-0.112,0.145-0.163,0.163c-0.025,0.006-0.068,0.014-0.129,0.022c-0.062,0.007-0.133,0.015-0.214,0.021
			c-0.082,0.008-0.17,0.014-0.262,0.019c-0.093,0.005-0.184,0.009-0.269,0.013c-0.086,0.004-0.166,0.007-0.236,0.009
			c-0.072,0.003-0.126,0.004-0.163,0.004c-0.034,0-0.07,0.005-0.106,0.017c-0.035,0.012-0.068,0.027-0.096,0.05
			c-0.028,0.023-0.051,0.051-0.069,0.086c-0.02,0.037-0.028,0.079-0.028,0.128c0,0.025,0.008,0.055,0.028,0.09
			c0.018,0.036,0.042,0.07,0.072,0.103c0.028,0.033,0.062,0.062,0.1,0.087c0.038,0.024,0.078,0.037,0.117,0.037
			c0.012,0,0.044-0.002,0.096-0.006c0.052-0.003,0.112-0.008,0.182-0.011c0.071-0.004,0.146-0.008,0.226-0.015
			c0.08-0.006,0.155-0.011,0.227-0.014c0.071-0.004,0.132-0.008,0.185-0.012c0.052-0.004,0.084-0.005,0.097-0.005
			c0.012,0,0.024-0.001,0.039-0.002c0.014,0,0.028-0.001,0.042-0.001c0.042,0,0.084,0.006,0.124,0.019
			c0.041,0.013,0.071,0.041,0.091,0.085c-0.029,0.244-0.065,0.468-0.105,0.674c-0.041,0.206-0.08,0.403-0.119,0.595
			c-0.039,0.19-0.071,0.378-0.098,0.563c-0.026,0.185-0.04,0.377-0.04,0.577c0,0.017,0.003,0.05,0.01,0.099
			c0.009,0.05,0.023,0.1,0.045,0.151c0.022,0.052,0.053,0.098,0.092,0.139c0.04,0.041,0.09,0.061,0.152,0.061
			c0.015,0,0.041-0.009,0.076-0.029c0.036-0.02,0.073-0.042,0.109-0.068c0.037-0.027,0.069-0.053,0.098-0.08
			c0.029-0.027,0.043-0.048,0.045-0.063c0.006-0.053,0.009-0.098,0.009-0.139c0.001-0.041,0.001-0.081,0.001-0.12
			c0-0.04,0-0.08-0.001-0.121c-0.001-0.04,0-0.086,0.001-0.138c0.004-0.094,0.007-0.183,0.016-0.266
			c0.007-0.083,0.015-0.17,0.027-0.26c0.01-0.089,0.024-0.186,0.041-0.288c0.016-0.102,0.036-0.22,0.057-0.354
			c0.005-0.029,0.012-0.077,0.022-0.144c0.009-0.066,0.021-0.141,0.033-0.224c0.013-0.082,0.026-0.167,0.04-0.255
			c0.013-0.087,0.027-0.167,0.042-0.238c0.014-0.072,0.027-0.13,0.042-0.177c0.014-0.046,0.026-0.07,0.039-0.07
			c0.2-0.015,0.399-0.038,0.597-0.068c0.198-0.031,0.389-0.067,0.573-0.109c0.183-0.042,0.356-0.089,0.521-0.144
			c0.165-0.054,0.315-0.111,0.451-0.169c0.094-0.042,0.182-0.094,0.266-0.154c0.022-0.016,0.042-0.033,0.063-0.049
			c-0.002,0.025-0.003,0.053-0.005,0.079c-0.004,0.098-0.009,0.187-0.014,0.268c-0.006,0.081-0.01,0.146-0.012,0.196
			c-0.009,0.153-0.023,0.323-0.041,0.513c-0.017,0.189-0.035,0.384-0.056,0.582c-0.02,0.198-0.039,0.395-0.063,0.589
			c-0.022,0.194-0.041,0.373-0.058,0.536c-0.011,0.084-0.022,0.174-0.038,0.271c-0.015,0.097-0.029,0.191-0.045,0.283
			c-0.015,0.09-0.026,0.172-0.038,0.246c-0.011,0.072-0.017,0.125-0.017,0.157c0,0.037,0.011,0.074,0.031,0.112
			s0.048,0.072,0.081,0.102c0.034,0.029,0.07,0.053,0.111,0.071c0.04,0.018,0.08,0.027,0.119,0.027c0.018,0,0.049-0.013,0.097-0.038
			c0.047-0.027,0.091-0.071,0.133-0.135c0.076-0.14,0.166-0.305,0.268-0.493c0.102-0.188,0.216-0.376,0.342-0.564
			c0.143-0.216,0.297-0.429,0.462-0.639c0.164-0.209,0.327-0.397,0.484-0.563c0.157-0.166,0.303-0.3,0.436-0.402
			c0.133-0.102,0.237-0.153,0.313-0.153c0.021,0,0.039,0.018,0.053,0.054c0.018,0.036,0.031,0.081,0.043,0.138
			s0.023,0.12,0.033,0.188s0.02,0.136,0.025,0.202c0.006,0.065,0.012,0.125,0.016,0.179c0.006,0.054,0.01,0.095,0.012,0.122
			c0.02,0.173,0.045,0.334,0.078,0.484c0.031,0.15,0.08,0.286,0.145,0.406c0.063,0.121,0.15,0.208,0.264,0.262
			c0.111,0.054,0.24,0.081,0.385,0.081c0.189-0.002,0.377-0.036,0.561-0.099c0.184-0.064,0.36-0.149,0.532-0.254
			c0.17-0.104,0.336-0.223,0.496-0.356c0.098-0.081,0.191-0.165,0.281-0.251c-0.051,0.189-0.078,0.363-0.078,0.517
			c0,0.11,0.02,0.209,0.061,0.296s0.096,0.159,0.16,0.218c0.066,0.059,0.145,0.104,0.232,0.135c0.086,0.03,0.178,0.045,0.27,0.045
			c0.043,0,0.107-0.023,0.195-0.07c0.086-0.047,0.184-0.108,0.289-0.182c0.104-0.074,0.207-0.156,0.313-0.245
			c0.105-0.09,0.195-0.178,0.271-0.265c0.021-0.024,0.053-0.062,0.09-0.11c0.039-0.049,0.082-0.104,0.131-0.163
			c0.047-0.06,0.096-0.121,0.146-0.183c0.047-0.063,0.096-0.119,0.137-0.17c0.043-0.051,0.082-0.092,0.113-0.123
			c0.033-0.033,0.053-0.048,0.063-0.048c0.014,0,0.027,0.014,0.039,0.042c0.014,0.028,0.025,0.063,0.035,0.104
			c0.01,0.041,0.02,0.084,0.029,0.133c0.01,0.048,0.021,0.09,0.033,0.127c0.021,0.069,0.055,0.135,0.094,0.2
			c0.041,0.063,0.088,0.12,0.141,0.168c0.053,0.047,0.109,0.086,0.17,0.116c0.061,0.029,0.121,0.044,0.184,0.044
			c0.143,0,0.305-0.046,0.482-0.137c0.18-0.09,0.357-0.217,0.537-0.38c0.172-0.155,0.344-0.32,0.512-0.493
			c0.164-0.17,0.322-0.357,0.475-0.562c-0.006,0.081-0.012,0.164-0.02,0.25c-0.018,0.251-0.041,0.464-0.07,0.639
			c-0.029,0.175-0.057,0.328-0.08,0.458c-0.008,0.047-0.018,0.1-0.027,0.159s-0.018,0.119-0.027,0.179
			c-0.008,0.061-0.016,0.119-0.02,0.177c-0.006,0.059-0.008,0.109-0.008,0.154c0,0.032,0.008,0.063,0.025,0.096
			c0.018,0.033,0.043,0.061,0.074,0.087c0.031,0.026,0.07,0.047,0.115,0.063c0.043,0.016,0.092,0.024,0.145,0.024
			c0.057,0,0.102-0.008,0.137-0.024c0.037-0.016,0.07-0.043,0.102-0.081c0.033-0.039,0.068-0.089,0.104-0.152
			c0.037-0.063,0.086-0.141,0.148-0.234c0.035-0.052,0.088-0.125,0.16-0.218c0.072-0.094,0.156-0.196,0.248-0.306
			c0.092-0.109,0.189-0.224,0.291-0.341c0.104-0.118,0.201-0.229,0.297-0.331c0.094-0.102,0.18-0.191,0.256-0.266
			c0.078-0.075,0.135-0.125,0.174-0.15c0,0.352,0.031,0.655,0.09,0.909c0.061,0.253,0.15,0.463,0.266,0.628
			c0.117,0.165,0.26,0.286,0.43,0.363c0.172,0.079,0.369,0.117,0.59,0.117C99.72-22.132,99.915-22.162,100.085-22.223z
			 M93.448-25.203c-0.006,0.043-0.012,0.09-0.021,0.14c-0.008,0.051-0.018,0.101-0.027,0.152c-0.01,0.05-0.018,0.094-0.025,0.13
			c-0.029,0.121-0.078,0.255-0.152,0.403c-0.076,0.148-0.166,0.298-0.268,0.451c-0.102,0.153-0.213,0.301-0.332,0.445
			c-0.119,0.145-0.236,0.272-0.352,0.384c-0.115,0.112-0.221,0.202-0.318,0.27c-0.1,0.067-0.178,0.101-0.24,0.101
			c-0.059,0-0.115-0.02-0.172-0.06c-0.055-0.039-0.082-0.097-0.082-0.173c0-0.128,0.014-0.25,0.045-0.366
			c0.031-0.116,0.068-0.225,0.115-0.328c0.045-0.102,0.094-0.196,0.145-0.28c0.049-0.085,0.096-0.163,0.137-0.234
			c0.139-0.236,0.271-0.437,0.4-0.603c0.129-0.165,0.25-0.3,0.365-0.404c0.117-0.105,0.227-0.182,0.33-0.233
			c0.102-0.051,0.199-0.081,0.291-0.09h0.008c0.025,0,0.047,0.009,0.068,0.028c0.02,0.019,0.037,0.04,0.053,0.063
			c0.016,0.024,0.025,0.046,0.033,0.068s0.012,0.036,0.012,0.036C93.458-25.278,93.454-25.246,93.448-25.203z"/>
		<path fill="#FFFFFF" d="M45.511-17.901c-0.224,0-0.394,0.069-0.51,0.209c-0.116,0.14-0.174,0.317-0.174,0.533v4.219
			c0,1.43-0.587,2.145-1.762,2.145s-1.761-0.707-1.761-2.121v-4.243c0-0.215-0.064-0.393-0.191-0.533
			c-0.128-0.14-0.308-0.209-0.539-0.209c-0.224,0-0.397,0.069-0.521,0.209c-0.125,0.14-0.187,0.317-0.187,0.533v4.182
			c0,1.039,0.25,1.875,0.749,2.511c0.5,0.635,1.313,0.953,2.439,0.953c0.583,0,1.086-0.092,1.51-0.276
			c0.423-0.183,0.751-0.441,0.982-0.773c0.232-0.331,0.399-0.697,0.503-1.096c0.104-0.399,0.156-0.847,0.156-1.343v-4.158
			c0-0.215-0.06-0.394-0.18-0.533C45.906-17.832,45.735-17.901,45.511-17.901z"/>
		<path fill="#FFFFFF" d="M55.157-17.901c-0.431,0-0.647,0.247-0.647,0.742v4.973l-3.954-5.32c-0.192-0.264-0.428-0.396-0.707-0.396
			c-0.448,0-0.671,0.252-0.671,0.755v6.783c0,0.488,0.215,0.731,0.647,0.731c0.439,0,0.659-0.243,0.659-0.731v-4.937l4.002,5.309
			c0.191,0.24,0.407,0.36,0.647,0.36c0.208,0,0.373-0.068,0.497-0.205c0.124-0.135,0.186-0.311,0.186-0.527v-6.795
			C55.817-17.654,55.597-17.901,55.157-17.901z"/>
		<path fill="#FFFFFF" d="M59.508-17.901c-0.232,0-0.41,0.069-0.534,0.209c-0.124,0.14-0.186,0.317-0.186,0.533v6.795
			c0,0.216,0.062,0.392,0.186,0.527c0.124,0.136,0.302,0.205,0.534,0.205c0.223,0,0.399-0.068,0.527-0.205
			c0.128-0.135,0.192-0.311,0.192-0.527v-6.795c0-0.215-0.064-0.393-0.192-0.533C59.906-17.832,59.731-17.901,59.508-17.901z"/>
		<path fill="#FFFFFF" d="M69.154-17.842c-0.455-0.184-0.787,0.02-0.995,0.611l-2.048,5.56l-2.229-5.621
			c-0.215-0.543-0.546-0.722-0.994-0.539c-0.216,0.08-0.348,0.234-0.396,0.461c-0.047,0.228-0.023,0.434,0.072,0.618l2.768,6.71
			c0.152,0.352,0.384,0.528,0.695,0.528c0.343,0,0.587-0.184,0.731-0.551l2.648-6.782C69.614-17.358,69.529-17.69,69.154-17.842z"/>
		<path fill="#FFFFFF" d="M76.511-10.916h-3.463v-2.324h2.672c0.215,0,0.385-0.06,0.51-0.18c0.123-0.119,0.186-0.275,0.186-0.467
			c0-0.2-0.063-0.355-0.186-0.467c-0.125-0.112-0.295-0.168-0.51-0.168h-2.672v-2.097h3.344c0.207,0,0.373-0.059,0.496-0.175
			c0.125-0.115,0.186-0.269,0.186-0.46c0-0.2-0.062-0.358-0.186-0.474c-0.123-0.116-0.29-0.174-0.496-0.174h-4.052
			c-0.231,0-0.411,0.07-0.539,0.21c-0.128,0.14-0.192,0.318-0.192,0.533v6.783c0,0.216,0.065,0.394,0.197,0.533
			c0.132,0.139,0.314,0.209,0.545,0.209h4.157c0.208,0,0.375-0.058,0.498-0.173c0.124-0.116,0.186-0.27,0.186-0.461
			c0-0.2-0.063-0.357-0.186-0.474C76.885-10.857,76.719-10.916,76.511-10.916z"/>
		<path fill="#FFFFFF" d="M83.546-13.204c0.464-0.16,0.83-0.436,1.103-0.827s0.408-0.871,0.408-1.438
			c0-1.661-1.035-2.493-3.104-2.493c-0.727,0-1.326,0.052-1.797,0.156c-0.448,0.096-0.67,0.371-0.67,0.827v6.615
			c0,0.216,0.061,0.391,0.186,0.527c0.124,0.136,0.301,0.204,0.534,0.204c0.223,0,0.399-0.068,0.526-0.204
			c0.129-0.136,0.191-0.311,0.191-0.527v-2.6c0.216,0.032,0.452,0.048,0.708,0.048c0.239,0,0.412-0.008,0.515-0.024l1.702,2.803
			c0.304,0.504,0.668,0.635,1.091,0.396c0.184-0.112,0.287-0.278,0.312-0.498s-0.036-0.438-0.179-0.653L83.546-13.204z
			 M83.103-14.325c-0.297,0.22-0.752,0.33-1.368,0.33c-0.295,0-0.566-0.016-0.814-0.047v-2.564c0.399-0.047,0.703-0.072,0.911-0.072
			c1.144,0,1.713,0.432,1.713,1.294C83.546-14.897,83.398-14.545,83.103-14.325z"/>
		<path fill="#FFFFFF" d="M92.337-13.959c-0.309-0.16-0.645-0.313-1.008-0.456c-0.363-0.145-0.699-0.264-1.006-0.359
			c-0.309-0.096-0.565-0.234-0.774-0.414c-0.207-0.18-0.311-0.397-0.311-0.653c0-0.575,0.395-0.863,1.185-0.863
			c0.473,0,0.963,0.107,1.477,0.323c0.582,0.256,0.961,0.212,1.137-0.131c0.209-0.408,0.068-0.743-0.42-1.007
			c-0.582-0.335-1.277-0.503-2.084-0.503c-0.894,0-1.577,0.2-2.044,0.599s-0.701,0.942-0.701,1.629c0,0.559,0.144,1.019,0.431,1.378
			c0.287,0.36,0.637,0.622,1.049,0.785c0.41,0.164,0.819,0.31,1.228,0.438c0.408,0.127,0.756,0.295,1.043,0.502
			c0.289,0.208,0.432,0.48,0.432,0.815c0,0.344-0.131,0.604-0.391,0.778c-0.258,0.176-0.611,0.265-1.061,0.265
			c-0.56,0-1.157-0.148-1.798-0.444c-0.525-0.216-0.869-0.168-1.029,0.144c-0.113,0.208-0.121,0.412-0.029,0.612
			c0.091,0.199,0.273,0.371,0.544,0.514c0.639,0.328,1.398,0.491,2.276,0.491c0.982,0,1.719-0.229,2.205-0.688
			c0.488-0.459,0.73-1.077,0.73-1.852c0-0.455-0.104-0.847-0.311-1.174C92.902-13.556,92.644-13.799,92.337-13.959z"/>
		<path fill="#FFFFFF" d="M96.441-17.901c-0.23,0-0.41,0.069-0.533,0.209c-0.123,0.14-0.186,0.317-0.186,0.533v6.795
			c0,0.216,0.063,0.392,0.186,0.527c0.123,0.136,0.303,0.205,0.533,0.205c0.225,0,0.4-0.068,0.527-0.205
			c0.129-0.135,0.191-0.311,0.191-0.527v-6.795c0-0.215-0.063-0.393-0.191-0.533C96.841-17.832,96.665-17.901,96.441-17.901z"/>
		<path fill="#FFFFFF" d="M105.632-17.901h-5.68c-0.207,0-0.373,0.055-0.498,0.167c-0.123,0.112-0.186,0.267-0.186,0.467
			c0,0.192,0.063,0.347,0.186,0.467c0.125,0.12,0.291,0.18,0.498,0.18h2.121v6.255c0,0.216,0.063,0.392,0.186,0.527
			c0.123,0.135,0.301,0.204,0.531,0.204c0.232,0,0.412-0.068,0.535-0.204s0.186-0.312,0.186-0.527v-6.255h2.121
			c0.215,0,0.385-0.061,0.508-0.18c0.125-0.12,0.188-0.275,0.188-0.468c0-0.2-0.063-0.355-0.188-0.467
			C106.017-17.846,105.847-17.901,105.632-17.901z"/>
		<path fill="#FFFFFF" d="M114.56-17.781c-0.24-0.12-0.443-0.141-0.611-0.061c-0.168,0.08-0.32,0.224-0.455,0.432l-1.869,2.899
			l-1.93-2.899c-0.145-0.224-0.309-0.376-0.492-0.456c-0.184-0.081-0.396-0.052-0.635,0.084c-0.383,0.271-0.406,0.667-0.072,1.186
			l2.361,3.38v2.84c0,0.216,0.061,0.391,0.186,0.527c0.125,0.135,0.301,0.204,0.533,0.204c0.223,0,0.398-0.068,0.527-0.204
			s0.191-0.312,0.191-0.527v-2.9l2.324-3.476c0.129-0.19,0.193-0.375,0.199-0.551C114.82-17.478,114.736-17.638,114.56-17.781z"/>
		<path fill="#FFFFFF" d="M107.245-23.331c-0.02,0-0.039,0.014-0.061,0.041c-0.02,0.027-0.043,0.059-0.07,0.094
			c-0.094,0.126-0.201,0.222-0.322,0.287c-0.121,0.064-0.275,0.097-0.465,0.097c-0.08,0-0.154-0.019-0.227-0.056
			c-0.07-0.038-0.133-0.105-0.186-0.204c-0.051-0.098-0.092-0.232-0.121-0.401c-0.031-0.169-0.045-0.386-0.045-0.653
			c0-0.094,0.008-0.199,0.025-0.313c0.018-0.115,0.037-0.225,0.059-0.331s0.041-0.198,0.059-0.278
			c0.012-0.056,0.018-0.094,0.021-0.123l0,0c0,0,0.002-0.01,0.002-0.027l0.004-0.006l-0.002-0.004
			c0.004-0.107-0.021-0.419-0.389-0.653c-0.219-0.14-0.5-0.083-0.734,0.01c-0.066,0.016-0.145,0.05-0.238,0.104
			c-0.045,0.028-0.094,0.063-0.143,0.098c-0.02,0.013-0.035,0.023-0.043,0.03c-0.006,0.003-0.01,0.006-0.014,0.009l0,0l0,0
			c-0.066,0.052-0.135,0.108-0.205,0.172c-0.141,0.131-0.281,0.283-0.418,0.456c-0.137,0.173-0.256,0.356-0.355,0.55
			c-0.088,0.172-0.164,0.33-0.225,0.474s-0.111,0.277-0.148,0.401c-0.039,0.124-0.066,0.238-0.082,0.345
			c-0.018,0.107-0.025,0.209-0.025,0.306c0,0.097,0.016,0.189,0.047,0.277c0.033,0.087,0.078,0.164,0.135,0.231
			s0.121,0.121,0.193,0.16c0.074,0.04,0.15,0.06,0.23,0.06c0.119,0,0.258-0.04,0.412-0.118c0.154-0.078,0.314-0.18,0.473-0.306
			c0.16-0.125,0.318-0.267,0.467-0.424c0.152-0.156,0.281-0.315,0.391-0.474c0.031,0.172,0.074,0.335,0.125,0.489
			s0.115,0.29,0.193,0.405c0.078,0.116,0.172,0.208,0.279,0.275c0.109,0.067,0.238,0.101,0.387,0.101
			c0.115,0,0.227-0.021,0.332-0.063c0.107-0.042,0.207-0.097,0.297-0.162c0.092-0.066,0.174-0.14,0.246-0.221
			c0.074-0.081,0.133-0.16,0.178-0.236c0.035-0.053,0.061-0.104,0.076-0.155s0.025-0.096,0.025-0.136
			c0-0.03-0.016-0.058-0.043-0.086C107.312-23.317,107.281-23.331,107.245-23.331z M105.247-24.561
			c-0.031,0.11-0.072,0.223-0.127,0.338c-0.051,0.114-0.109,0.227-0.172,0.336c-0.064,0.109-0.127,0.21-0.188,0.303
			c-0.059,0.087-0.133,0.178-0.223,0.274c-0.09,0.096-0.182,0.186-0.273,0.267c-0.094,0.083-0.182,0.15-0.264,0.204
			s-0.145,0.08-0.186,0.08c-0.125,0-0.209-0.035-0.254-0.106c-0.045-0.071-0.068-0.165-0.068-0.282c0-0.08,0.014-0.17,0.041-0.271
			c0.029-0.1,0.064-0.206,0.111-0.317c0.045-0.11,0.098-0.224,0.158-0.341c0.061-0.117,0.121-0.231,0.188-0.344
			c0.066-0.112,0.133-0.219,0.199-0.321c0.064-0.102,0.129-0.193,0.188-0.272c0.029-0.042,0.068-0.086,0.115-0.13
			c0.049-0.045,0.1-0.086,0.158-0.124c0.057-0.038,0.117-0.068,0.182-0.092c0.063-0.023,0.125-0.035,0.186-0.035
			c0.072,0,0.137,0.041,0.193,0.123s0.084,0.216,0.084,0.403C105.296-24.774,105.281-24.671,105.247-24.561z"/>
	</g>
</g>
</svg>
